<svg xmlns="http://www.w3.org/2000/svg" version="1.1" xmlns:xlink="http://www.w3.org/1999/xlink" xmlns:svgjs="http://svgjs.com/svgjs" width="1440" height="560" preserveAspectRatio="none" viewBox="0 0 1440 560"><g mask="url(&quot;#SvgjsMask1009&quot;)" fill="none"><rect width="1440" height="560" x="0" y="0" fill="url(#SvgjsLinearGradient1010)"></rect><path d="M915.89 528.16a49.23 49.23 0 1 0 89.76-40.45z" fill="#e73635"></path><path d="M391.44 111.46 a5.34 5.34 0 1 0 10.68 0 a5.34 5.34 0 1 0 -10.68 0z" fill="rgba(81, 89, 179, 1)"></path><path d="M34.32 134.22 a21.79 21.79 0 1 0 43.58 0 a21.79 21.79 0 1 0 -43.58 0z" stroke="#037b0b"></path><path d="M1105.63 161.27 a50.11 50.11 0 1 0 100.22 0 a50.11 50.11 0 1 0 -100.22 0z" fill="rgba(81, 89, 179, 1)"></path><path d="M1198.14 90.89 a45.47 45.47 0 1 0 90.94 0 a45.47 45.47 0 1 0 -90.94 0z" fill="#e73635"></path><path d="M953.88 113.68a29.69 29.69 0 1 0-29.1 51.76z" fill="#d3b714"></path><path d="M1154.59 117.57a11.85 11.85 0 1 0 16.89 16.62z" stroke="#e73635"></path><path d="M347.66 228.83L402.75 228.83L402.75 283.92L347.66 283.92z" fill="#037b0b"></path><path d="M149.15 227.18 a20.48 20.48 0 1 0 40.96 0 a20.48 20.48 0 1 0 -40.96 0z" fill="#e73635"></path><path d="M898.46 89.61L953.06 89.61L953.06 144.21L898.46 144.21z" stroke="#e73635"></path><path d="M247.18 465.94 a0.64 0.64 0 1 0 1.28 0 a0.64 0.64 0 1 0 -1.28 0z" fill="#d3b714"></path><path d="M300.26 448.68L330.63 448.68L330.63 499.96L300.26 499.96z" stroke="rgba(81, 89, 179, 1)"></path><path d="M214.05 365.56L268.14 365.56L268.14 405.49L214.05 405.49z" fill="#e73635"></path><path d="M1082.92 175.25L1114.52 175.25L1114.52 201.5L1082.92 201.5z" fill="rgba(81, 89, 179, 1)"></path><path d="M138.05 554.24 a45.65 45.65 0 1 0 91.3 0 a45.65 45.65 0 1 0 -91.3 0z" fill="#e73635"></path><path d="M187.81 305.99L220.72 305.99L220.72 338.9L187.81 338.9z" fill="#d3b714"></path><path d="M439.22 153.66L443.96 153.66L443.96 186.28L439.22 186.28z" fill="rgba(81, 89, 179, 1)"></path><path d="M1339 72.37a21.42 21.42 0 1 0-1.92-42.8z" stroke="#037b0b"></path><path d="M1309.1-20.01a25.21 25.21 0 1 0-13.79 48.5z" fill="#d3b714"></path><path d="M1056.52 323.46L1074.18 323.46L1074.18 341.12L1056.52 341.12z" fill="#037b0b"></path><path d="M640.45 304.1 a15.95 15.95 0 1 0 31.9 0 a15.95 15.95 0 1 0 -31.9 0z" stroke="#d3b714"></path><path d="M1415.17 520.11L1440.84 520.11L1440.84 545.78L1415.17 545.78z" stroke="#d3b714"></path><path d="M197.9 50.22L244.63 50.22L244.63 96.95L197.9 96.95z" stroke="#e73635"></path><path d="M727.96 494.9a55.77 55.77 0 1 0 35.1-105.87z" fill="#e73635"></path><path d="M228.99 152.89a9.76 9.76 0 1 0-14.91 12.59z" fill="#d3b714"></path><path d="M837.75 144.57a10.9 10.9 0 1 0-20.64 7.04z" stroke="#d3b714"></path><path d="M524.02 386.61L549.88 386.61L549.88 387.5L524.02 387.5z" fill="#d3b714"></path><path d="M437.71 529.52 a19.34 19.34 0 1 0 38.68 0 a19.34 19.34 0 1 0 -38.68 0z" stroke="#037b0b"></path><path d="M303.24 513.3 a36.74 36.74 0 1 0 73.48 0 a36.74 36.74 0 1 0 -73.48 0z" stroke="rgba(81, 89, 179, 1)"></path><path d="M73.1 215.6L101.89 215.6L101.89 240.36L73.1 240.36z" fill="#037b0b"></path><path d="M854.12 403.42L883.88 403.42L883.88 439.06L854.12 439.06z" fill="#e73635"></path><path d="M1001 425.56 a13.58 13.58 0 1 0 27.16 0 a13.58 13.58 0 1 0 -27.16 0z" fill="#e73635"></path><path d="M146.26 75.73L157.12 75.73L157.12 120.91L146.26 120.91z" stroke="#d3b714"></path></g><defs><mask id="SvgjsMask1009"><rect width="1440" height="560" fill="#ffffff"></rect></mask><linearGradient x1="15.28%" y1="-39.29%" x2="84.72%" y2="139.29%" gradientUnits="userSpaceOnUse" id="SvgjsLinearGradient1010"><stop stop-color="#0e2a47" offset="0"></stop><stop stop-color="#00459e" offset="1"></stop></linearGradient></defs></svg>