<svg xmlns="http://www.w3.org/2000/svg" version="1.1" xmlns:xlink="http://www.w3.org/1999/xlink" xmlns:svgjs="http://svgjs.com/svgjs" width="1400" height="560" preserveAspectRatio="none" viewBox="0 0 1400 560"><g mask="url(&quot;#SvgjsMask1006&quot;)" fill="none"><rect width="1400" height="560" x="0" y="0" fill="url(#SvgjsLinearGradient1007)"></rect><path d="M970.07 289.23L970.07 292.86L981.46 292.86L981.46 289.23zM975.04 291.04 a6.42 6.42 0 1 0 12.84 0 a6.42 6.42 0 1 0 -12.84 0zM965.5 315.85L964.11 319.2L972.52 322.68L973.9 319.33zM966.79 321.01 a6.42 6.42 0 1 0 12.84 0 a6.42 6.42 0 1 0 -12.84 0zM951.09 338.69L948.52 341.25L965.59 358.31L968.15 355.75zM960.45 357.03 a6.42 6.42 0 1 0 12.84 0 a6.42 6.42 0 1 0 -12.84 0zM929.03 354.28L925.68 355.66L929.26 364.29L932.61 362.91zM924.51 363.6 a6.42 6.42 0 1 0 12.84 0 a6.42 6.42 0 1 0 -12.84 0zM902.69 360.24L899.07 360.24L899.07 370.86L902.69 370.86zM894.46 370.86 a6.42 6.42 0 1 0 12.84 0 a6.42 6.42 0 1 0 -12.84 0zM876.07 355.66L872.73 354.28L868.57 364.3L871.92 365.69zM863.83 364.99 a6.42 6.42 0 1 0 12.84 0 a6.42 6.42 0 1 0 -12.84 0zM853.23 341.25L850.67 338.69L841.25 348.11L843.81 350.67zM836.11 349.39 a6.42 6.42 0 1 0 12.84 0 a6.42 6.42 0 1 0 -12.84 0zM837.65 319.2L836.26 315.85L821.13 322.12L822.51 325.47zM815.4 323.79 a6.42 6.42 0 1 0 12.84 0 a6.42 6.42 0 1 0 -12.84 0zM831.69 292.86L831.69 289.23L801.94 289.23L801.94 292.86zM795.52 291.04 a6.42 6.42 0 1 0 12.84 0 a6.42 6.42 0 1 0 -12.84 0zM836.26 266.24L837.65 262.89L828.8 259.23L827.41 262.57zM821.68 260.9 a6.42 6.42 0 1 0 12.84 0 a6.42 6.42 0 1 0 -12.84 0zM850.67 243.4L853.23 240.84L846.06 233.67L843.5 236.23zM838.36 234.95 a6.42 6.42 0 1 0 12.84 0 a6.42 6.42 0 1 0 -12.84 0zM872.73 227.81L876.07 226.43L870.61 213.24L867.27 214.63zM862.52 213.94 a6.42 6.42 0 1 0 12.84 0 a6.42 6.42 0 1 0 -12.84 0zM899.07 221.85L902.69 221.85L902.69 202.61L899.07 202.61zM894.46 202.61 a6.42 6.42 0 1 0 12.84 0 a6.42 6.42 0 1 0 -12.84 0zM925.68 226.43L929.03 227.81L933.06 218.08L929.71 216.7zM924.97 217.39 a6.42 6.42 0 1 0 12.84 0 a6.42 6.42 0 1 0 -12.84 0zM948.52 240.84L951.09 243.4L973.18 221.3L970.62 218.74zM965.48 220.02 a6.42 6.42 0 1 0 12.84 0 a6.42 6.42 0 1 0 -12.84 0zM964.11 262.89L965.5 266.24L982.98 259L981.59 255.65zM975.86 257.33 a6.42 6.42 0 1 0 12.84 0 a6.42 6.42 0 1 0 -12.84 0zM831.66 291.04 a69.22 69.22 0 1 0 138.44 0 a69.22 69.22 0 1 0 -138.44 0z" fill="#488fdb"></path><path d="M942.11 235.45 A68.216 68.216 0 0 1 928.55 354.49M928.55 354.49 A138.432 138.432 0 0 0 942.11 235.45" fill="#2672c3" fill-rule="nonzero"></path><path d="M881.15 313.56 a13.84 13.84 0 1 0 27.68 0 a13.84 13.84 0 1 0 -27.68 0zM881.58 234.94 a12.46 12.46 0 1 0 24.92 0 a12.46 12.46 0 1 0 -24.92 0zM904.18 273.69 a13.84 13.84 0 1 0 27.68 0 a13.84 13.84 0 1 0 -27.68 0zM955.61 298.84 a6.92 6.92 0 1 0 13.84 0 a6.92 6.92 0 1 0 -13.84 0zM873.99 280.79 a7.61 7.61 0 1 0 15.22 0 a7.61 7.61 0 1 0 -15.22 0zM851.43 247.08 a9 9 0 1 0 18 0 a9 9 0 1 0 -18 0zM832.11 295.21 a8.31 8.31 0 1 0 16.62 0 a8.31 8.31 0 1 0 -16.62 0zM912.98 344.74 a10.38 10.38 0 1 0 20.76 0 a10.38 10.38 0 1 0 -20.76 0zM941.26 243.74 a4.15 4.15 0 1 0 8.3 0 a4.15 4.15 0 1 0 -8.3 0zM936.79 322.31 a4.15 4.15 0 1 0 8.3 0 a4.15 4.15 0 1 0 -8.3 0z" fill="#2672c3" fill-rule="nonzero"></path><path d="M488.09 139.8L488.09 143.42L502.49 143.42L502.49 139.8zM496.07 141.61 a6.42 6.42 0 1 0 12.84 0 a6.42 6.42 0 1 0 -12.84 0zM483.52 166.42L482.13 169.76L508.87 180.84L510.26 177.49zM503.14 179.17 a6.42 6.42 0 1 0 12.84 0 a6.42 6.42 0 1 0 -12.84 0zM469.11 189.26L466.55 191.82L475.34 200.62L477.9 198.05zM470.2 199.33 a6.42 6.42 0 1 0 12.84 0 a6.42 6.42 0 1 0 -12.84 0zM447.05 204.84L443.71 206.23L448.21 217.11L451.56 215.73zM443.47 216.42 a6.42 6.42 0 1 0 12.84 0 a6.42 6.42 0 1 0 -12.84 0zM420.71 210.8L417.09 210.8L417.09 239.89L420.71 239.89zM412.48 239.89 a6.42 6.42 0 1 0 12.84 0 a6.42 6.42 0 1 0 -12.84 0zM394.1 206.23L390.75 204.84L381.76 226.54L385.11 227.92zM377.02 227.23 a6.42 6.42 0 1 0 12.84 0 a6.42 6.42 0 1 0 -12.84 0zM371.26 191.82L368.69 189.26L344.67 213.28L347.24 215.84zM339.53 214.56 a6.42 6.42 0 1 0 12.84 0 a6.42 6.42 0 1 0 -12.84 0zM355.67 169.76L354.28 166.42L329 176.89L330.39 180.24zM323.28 178.56 a6.42 6.42 0 1 0 12.84 0 a6.42 6.42 0 1 0 -12.84 0zM349.71 143.42L349.71 139.8L321.28 139.8L321.28 143.42zM314.86 141.61 a6.42 6.42 0 1 0 12.84 0 a6.42 6.42 0 1 0 -12.84 0zM354.28 116.81L355.67 113.46L341.88 107.75L340.5 111.1zM334.77 109.42 a6.42 6.42 0 1 0 12.84 0 a6.42 6.42 0 1 0 -12.84 0zM368.69 93.97L371.26 91.4L347.62 67.77L345.06 70.34zM339.92 69.05 a6.42 6.42 0 1 0 12.84 0 a6.42 6.42 0 1 0 -12.84 0zM390.75 78.38L394.1 76.99L387.33 60.66L383.98 62.05zM379.24 61.35 a6.42 6.42 0 1 0 12.84 0 a6.42 6.42 0 1 0 -12.84 0zM417.09 72.42L420.71 72.42L420.71 55.11L417.09 55.11zM412.48 55.11 a6.42 6.42 0 1 0 12.84 0 a6.42 6.42 0 1 0 -12.84 0zM443.71 76.99L447.05 78.38L457.61 52.89L454.26 51.5zM449.52 52.2 a6.42 6.42 0 1 0 12.84 0 a6.42 6.42 0 1 0 -12.84 0zM466.55 91.4L469.11 93.97L487.69 75.38L485.13 72.82zM479.99 74.1 a6.42 6.42 0 1 0 12.84 0 a6.42 6.42 0 1 0 -12.84 0zM482.13 113.46L483.52 116.81L505.73 107.61L504.34 104.26zM498.62 105.93 a6.42 6.42 0 1 0 12.84 0 a6.42 6.42 0 1 0 -12.84 0zM349.68 141.61 a69.22 69.22 0 1 0 138.44 0 a69.22 69.22 0 1 0 -138.44 0z" fill="#488fdb"></path><path d="M476.48 103.2 A68.216 68.216 0 0 1 423.52 210.67M423.52 210.67 A138.432 138.432 0 0 0 476.48 103.2" fill="#2672c3" fill-rule="nonzero"></path><path d="M378.74 184.87 a13.84 13.84 0 1 0 27.68 0 a13.84 13.84 0 1 0 -27.68 0zM429.43 80.21 a5.54 5.54 0 1 0 11.08 0 a5.54 5.54 0 1 0 -11.08 0zM356.6 145.56 a13.84 13.84 0 1 0 27.68 0 a13.84 13.84 0 1 0 -27.68 0zM437.96 128.67 a13.84 13.84 0 1 0 27.68 0 a13.84 13.84 0 1 0 -27.68 0zM386.18 116.74 a11.07 11.07 0 1 0 22.14 0 a11.07 11.07 0 1 0 -22.14 0zM409.1 158.08 a9.69 9.69 0 1 0 19.38 0 a9.69 9.69 0 1 0 -19.38 0zM439.76 182.42 a13.84 13.84 0 1 0 27.68 0 a13.84 13.84 0 1 0 -27.68 0zM357.58 111.2 a5.54 5.54 0 1 0 11.08 0 a5.54 5.54 0 1 0 -11.08 0zM469.42 156.31 a6.23 6.23 0 1 0 12.46 0 a6.23 6.23 0 1 0 -12.46 0zM455.99 90.19 a3.46 3.46 0 1 0 6.92 0 a3.46 3.46 0 1 0 -6.92 0z" fill="#2672c3" fill-rule="nonzero"></path><path d="M1250.15 100.87L1250.15 104.04L1265.06 104.04L1265.06 100.87zM1259.44 102.46 a5.62 5.62 0 1 0 11.24 0 a5.62 5.62 0 1 0 -11.24 0zM1246.15 124.16L1244.93 127.09L1258.4 132.67L1259.62 129.74zM1253.39 131.21 a5.62 5.62 0 1 0 11.24 0 a5.62 5.62 0 1 0 -11.24 0zM1233.54 144.15L1231.29 146.39L1243.64 158.74L1245.88 156.49zM1239.14 157.62 a5.62 5.62 0 1 0 11.24 0 a5.62 5.62 0 1 0 -11.24 0zM1214.24 157.79L1211.31 159L1218.2 175.64L1221.13 174.43zM1214.05 175.03 a5.62 5.62 0 1 0 11.24 0 a5.62 5.62 0 1 0 -11.24 0zM1191.19 163L1188.02 163L1188.02 189.92L1191.19 189.92zM1183.98 189.92 a5.62 5.62 0 1 0 11.24 0 a5.62 5.62 0 1 0 -11.24 0zM1167.9 159L1164.97 157.79L1154.05 184.15L1156.98 185.36zM1149.9 184.75 a5.62 5.62 0 1 0 11.24 0 a5.62 5.62 0 1 0 -11.24 0zM1147.91 146.39L1145.67 144.15L1136.32 153.5L1138.56 155.75zM1131.82 154.62 a5.62 5.62 0 1 0 11.24 0 a5.62 5.62 0 1 0 -11.24 0zM1134.28 127.09L1133.06 124.16L1106.59 135.13L1107.81 138.06zM1101.58 136.59 a5.62 5.62 0 1 0 11.24 0 a5.62 5.62 0 1 0 -11.24 0zM1129.06 104.04L1129.06 100.87L1104.62 100.87L1104.62 104.04zM1099 102.46 a5.62 5.62 0 1 0 11.24 0 a5.62 5.62 0 1 0 -11.24 0zM1133.06 80.75L1134.28 77.83L1109.68 67.64L1108.47 70.57zM1103.46 69.1 a5.62 5.62 0 1 0 11.24 0 a5.62 5.62 0 1 0 -11.24 0zM1145.67 60.77L1147.91 58.53L1131.86 42.48L1129.62 44.72zM1125.12 43.6 a5.62 5.62 0 1 0 11.24 0 a5.62 5.62 0 1 0 -11.24 0zM1164.97 47.13L1167.9 45.92L1160.38 27.76L1157.45 28.98zM1153.3 28.37 a5.62 5.62 0 1 0 11.24 0 a5.62 5.62 0 1 0 -11.24 0zM1188.02 41.92L1191.19 41.92L1191.19 22.79L1188.02 22.79zM1183.98 22.79 a5.62 5.62 0 1 0 11.24 0 a5.62 5.62 0 1 0 -11.24 0zM1211.31 45.92L1214.24 47.13L1220.15 32.87L1217.22 31.65zM1213.06 32.26 a5.62 5.62 0 1 0 11.24 0 a5.62 5.62 0 1 0 -11.24 0zM1231.29 58.53L1233.54 60.77L1253.7 40.6L1251.46 38.36zM1246.96 39.48 a5.62 5.62 0 1 0 11.24 0 a5.62 5.62 0 1 0 -11.24 0zM1244.93 77.83L1246.15 80.75L1269.42 71.11L1268.2 68.19zM1263.19 69.65 a5.62 5.62 0 1 0 11.24 0 a5.62 5.62 0 1 0 -11.24 0zM1129.04 102.46 a60.56 60.56 0 1 0 121.12 0 a60.56 60.56 0 1 0 -121.12 0z" fill="#488fdb"></path><path d="M1178.13 42.99 A59.564 59.564 0 0 1 1246.88 122.14M1246.88 122.14 A121.128 121.128 0 0 0 1178.13 42.99" fill="#2672c3" fill-rule="nonzero"></path><path d="M1143.16 123.23 a12.11 12.11 0 1 0 24.22 0 a12.11 12.11 0 1 0 -24.22 0zM1218.34 120.72 a12.11 12.11 0 1 0 24.22 0 a12.11 12.11 0 1 0 -24.22 0zM1161.62 58.89 a12.11 12.11 0 1 0 24.22 0 a12.11 12.11 0 1 0 -24.22 0zM1211.12 78.5 a12.11 12.11 0 1 0 24.22 0 a12.11 12.11 0 1 0 -24.22 0zM1154.16 96.41 a2.42 2.42 0 1 0 4.84 0 a2.42 2.42 0 1 0 -4.84 0zM1183.51 113.4 a11.51 11.51 0 1 0 23.02 0 a11.51 11.51 0 1 0 -23.02 0zM1203.14 141.09 a5.45 5.45 0 1 0 10.9 0 a5.45 5.45 0 1 0 -10.9 0zM1170.89 92.1 a4.85 4.85 0 1 0 9.7 0 a4.85 4.85 0 1 0 -9.7 0zM1175.75 150.42 a8.48 8.48 0 1 0 16.96 0 a8.48 8.48 0 1 0 -16.96 0zM1190.81 77.89 a2.42 2.42 0 1 0 4.84 0 a2.42 2.42 0 1 0 -4.84 0z" fill="#2672c3" fill-rule="nonzero"></path><path d="M192.7 330.35L192.7 333.98L223.06 333.98L223.06 330.35zM216.64 332.17 a6.42 6.42 0 1 0 12.84 0 a6.42 6.42 0 1 0 -12.84 0zM188.13 356.97L186.74 360.32L200.22 365.9L201.61 362.55zM194.49 364.23 a6.42 6.42 0 1 0 12.84 0 a6.42 6.42 0 1 0 -12.84 0zM173.72 379.81L171.16 382.37L195.36 406.58L197.92 404.02zM190.22 405.3 a6.42 6.42 0 1 0 12.84 0 a6.42 6.42 0 1 0 -12.84 0zM151.66 395.4L148.31 396.78L157.02 417.79L160.36 416.41zM152.27 417.1 a6.42 6.42 0 1 0 12.84 0 a6.42 6.42 0 1 0 -12.84 0zM125.32 401.36L121.7 401.36L121.7 410.27L125.32 410.27zM117.09 410.27 a6.42 6.42 0 1 0 12.84 0 a6.42 6.42 0 1 0 -12.84 0zM98.71 396.78L95.36 395.4L85.95 418.11L89.3 419.49zM81.2 418.8 a6.42 6.42 0 1 0 12.84 0 a6.42 6.42 0 1 0 -12.84 0zM75.86 382.37L73.3 379.81L64.44 388.68L67 391.24zM59.3 389.96 a6.42 6.42 0 1 0 12.84 0 a6.42 6.42 0 1 0 -12.84 0zM60.28 360.32L58.89 356.97L48.53 361.26L49.92 364.61zM42.81 362.93 a6.42 6.42 0 1 0 12.84 0 a6.42 6.42 0 1 0 -12.84 0zM54.32 333.98L54.32 330.35L20.97 330.35L20.97 333.98zM14.55 332.17 a6.42 6.42 0 1 0 12.84 0 a6.42 6.42 0 1 0 -12.84 0zM58.89 307.36L60.28 304.01L31.43 292.06L30.04 295.41zM24.31 293.74 a6.42 6.42 0 1 0 12.84 0 a6.42 6.42 0 1 0 -12.84 0zM73.3 284.52L75.86 281.96L55.81 261.9L53.25 264.47zM48.11 263.19 a6.42 6.42 0 1 0 12.84 0 a6.42 6.42 0 1 0 -12.84 0zM95.36 268.93L98.71 267.55L88.53 242.98L85.18 244.37zM80.44 243.67 a6.42 6.42 0 1 0 12.84 0 a6.42 6.42 0 1 0 -12.84 0zM121.7 262.97L125.32 262.97L125.32 249.87L121.7 249.87zM117.09 249.87 a6.42 6.42 0 1 0 12.84 0 a6.42 6.42 0 1 0 -12.84 0zM148.31 267.55L151.66 268.93L157.44 254.97L154.1 253.59zM149.35 254.28 a6.42 6.42 0 1 0 12.84 0 a6.42 6.42 0 1 0 -12.84 0zM171.16 281.96L173.72 284.52L192.5 265.74L189.94 263.18zM184.8 264.46 a6.42 6.42 0 1 0 12.84 0 a6.42 6.42 0 1 0 -12.84 0zM186.74 304.01L188.13 307.36L197.62 303.43L196.23 300.08zM190.5 301.76 a6.42 6.42 0 1 0 12.84 0 a6.42 6.42 0 1 0 -12.84 0zM54.29 332.17 a69.22 69.22 0 1 0 138.44 0 a69.22 69.22 0 1 0 -138.44 0z" fill="#488fdb"></path><path d="M96.94 396.08 A68.216 68.216 0 0 1 81.33 277.29M81.33 277.29 A138.432 138.432 0 0 0 96.94 396.08" fill="#2672c3" fill-rule="nonzero"></path><path d="M67.02 355.22 a13.84 13.84 0 1 0 27.68 0 a13.84 13.84 0 1 0 -27.68 0zM127.75 393.13 a6.92 6.92 0 1 0 13.84 0 a6.92 6.92 0 1 0 -13.84 0zM140.58 310.06 a13.84 13.84 0 1 0 27.68 0 a13.84 13.84 0 1 0 -27.68 0zM85.69 282.56 a13.15 13.15 0 1 0 26.3 0 a13.15 13.15 0 1 0 -26.3 0zM56.39 317.49 a11.07 11.07 0 1 0 22.14 0 a11.07 11.07 0 1 0 -22.14 0zM96.72 392.94 a3.46 3.46 0 1 0 6.92 0 a3.46 3.46 0 1 0 -6.92 0zM164.01 368.24 a8.31 8.31 0 1 0 16.62 0 a8.31 8.31 0 1 0 -16.62 0zM110.64 316.28 a8.31 8.31 0 1 0 16.62 0 a8.31 8.31 0 1 0 -16.62 0zM107.88 362.91 a8.31 8.31 0 1 0 16.62 0 a8.31 8.31 0 1 0 -16.62 0zM126.25 281.94 a4.15 4.15 0 1 0 8.3 0 a4.15 4.15 0 1 0 -8.3 0z" fill="#2672c3" fill-rule="nonzero"></path><path d="M443.04 416.15L443.04 418.86L453.04 418.86L453.04 416.15zM448.23 417.5 a4.81 4.81 0 1 0 9.62 0 a4.81 4.81 0 1 0 -9.62 0zM439.61 436.11L438.57 438.62L454.92 445.39L455.96 442.88zM450.63 444.14 a4.81 4.81 0 1 0 9.62 0 a4.81 4.81 0 1 0 -9.62 0zM428.8 453.24L426.88 455.16L439.17 467.45L441.09 465.53zM435.32 466.49 a4.81 4.81 0 1 0 9.62 0 a4.81 4.81 0 1 0 -9.62 0zM412.26 464.93L409.75 465.97L413.72 475.56L416.24 474.52zM410.17 475.04 a4.81 4.81 0 1 0 9.62 0 a4.81 4.81 0 1 0 -9.62 0zM392.51 469.4L389.79 469.4L389.79 487.46L392.51 487.46zM386.34 487.46 a4.81 4.81 0 1 0 9.62 0 a4.81 4.81 0 1 0 -9.62 0zM372.54 465.97L370.03 464.93L363.21 481.41L365.72 482.45zM359.65 481.93 a4.81 4.81 0 1 0 9.62 0 a4.81 4.81 0 1 0 -9.62 0zM355.41 455.16L353.49 453.24L348.9 457.83L350.83 459.75zM345.05 458.79 a4.81 4.81 0 1 0 9.62 0 a4.81 4.81 0 1 0 -9.62 0zM343.72 438.62L342.68 436.11L335.41 439.12L336.45 441.63zM331.12 440.37 a4.81 4.81 0 1 0 9.62 0 a4.81 4.81 0 1 0 -9.62 0zM339.25 418.86L339.25 416.15L325.67 416.15L325.67 418.86zM320.86 417.5 a4.81 4.81 0 1 0 9.62 0 a4.81 4.81 0 1 0 -9.62 0zM342.68 398.9L343.72 396.39L322.91 387.77L321.87 390.28zM317.58 389.02 a4.81 4.81 0 1 0 9.62 0 a4.81 4.81 0 1 0 -9.62 0zM353.49 381.77L355.41 379.85L343.17 367.61L341.25 369.53zM337.4 368.57 a4.81 4.81 0 1 0 9.62 0 a4.81 4.81 0 1 0 -9.62 0zM370.03 370.08L372.54 369.04L366.14 353.58L363.63 354.62zM360.08 354.1 a4.81 4.81 0 1 0 9.62 0 a4.81 4.81 0 1 0 -9.62 0zM389.79 365.61L392.51 365.61L392.51 350.2L389.79 350.2zM386.34 350.2 a4.81 4.81 0 1 0 9.62 0 a4.81 4.81 0 1 0 -9.62 0zM409.75 369.04L412.26 370.08L417.32 357.87L414.81 356.83zM411.26 357.35 a4.81 4.81 0 1 0 9.62 0 a4.81 4.81 0 1 0 -9.62 0zM426.88 379.85L428.8 381.77L440.83 369.74L438.91 367.82zM435.06 368.78 a4.81 4.81 0 1 0 9.62 0 a4.81 4.81 0 1 0 -9.62 0zM438.57 396.39L439.61 398.9L456.33 391.98L455.29 389.47zM451 390.72 a4.81 4.81 0 1 0 9.62 0 a4.81 4.81 0 1 0 -9.62 0zM339.24 417.5 a51.91 51.91 0 1 0 103.82 0 a51.91 51.91 0 1 0 -103.82 0z" fill="#488fdb"></path><path d="M393.22 365.63 A50.912 50.912 0 0 1 435.09 445.14M435.09 445.14 A103.824 103.824 0 0 0 393.22 365.63" fill="#2672c3" fill-rule="nonzero"></path><path d="M422.88 406.66 a9.34 9.34 0 1 0 18.68 0 a9.34 9.34 0 1 0 -18.68 0zM360.84 379.74 a7.79 7.79 0 1 0 15.58 0 a7.79 7.79 0 1 0 -15.58 0zM365.29 417.03 a10.38 10.38 0 1 0 20.76 0 a10.38 10.38 0 1 0 -20.76 0zM420.97 445.08 a6.23 6.23 0 1 0 12.46 0 a6.23 6.23 0 1 0 -12.46 0zM394.39 427.44 a2.6 2.6 0 1 0 5.2 0 a2.6 2.6 0 1 0 -5.2 0zM396.15 456.01 a8.31 8.31 0 1 0 16.62 0 a8.31 8.31 0 1 0 -16.62 0zM394.56 387.53 a10.38 10.38 0 1 0 20.76 0 a10.38 10.38 0 1 0 -20.76 0zM342.12 432.33 a5.71 5.71 0 1 0 11.42 0 a5.71 5.71 0 1 0 -11.42 0zM349.51 394.3 a3.11 3.11 0 1 0 6.22 0 a3.11 3.11 0 1 0 -6.22 0zM346 412.12 a4.15 4.15 0 1 0 8.3 0 a4.15 4.15 0 1 0 -8.3 0z" fill="#2672c3" fill-rule="nonzero"></path><path d="M137.77 58.21L137.77 60.02L154.28 60.02L154.28 58.21zM151.07 59.11 a3.21 3.21 0 1 0 6.42 0 a3.21 3.21 0 1 0 -6.42 0zM135.48 71.52L134.79 73.19L150.05 79.51L150.74 77.84zM147.19 78.67 a3.21 3.21 0 1 0 6.42 0 a3.21 3.21 0 1 0 -6.42 0zM128.27 82.94L126.99 84.22L130.89 88.11L132.17 86.83zM128.32 87.47 a3.21 3.21 0 1 0 6.42 0 a3.21 3.21 0 1 0 -6.42 0zM117.25 90.73L115.57 91.42L120.87 104.2L122.54 103.51zM118.49 103.85 a3.21 3.21 0 1 0 6.42 0 a3.21 3.21 0 1 0 -6.42 0zM104.08 93.71L102.26 93.71L102.26 100.25L104.08 100.25zM99.96 100.25 a3.21 3.21 0 1 0 6.42 0 a3.21 3.21 0 1 0 -6.42 0zM90.77 91.42L89.09 90.73L83.77 103.59L85.44 104.28zM81.39 103.94 a3.21 3.21 0 1 0 6.42 0 a3.21 3.21 0 1 0 -6.42 0zM79.35 84.22L78.07 82.94L67.04 93.97L68.32 95.25zM64.47 94.61 a3.21 3.21 0 1 0 6.42 0 a3.21 3.21 0 1 0 -6.42 0zM71.55 73.19L70.86 71.52L59.93 76.04L60.63 77.72zM57.07 76.88 a3.21 3.21 0 1 0 6.42 0 a3.21 3.21 0 1 0 -6.42 0zM68.57 60.02L68.57 58.21L53.33 58.21L53.33 60.02zM50.12 59.11 a3.21 3.21 0 1 0 6.42 0 a3.21 3.21 0 1 0 -6.42 0zM70.86 46.71L71.55 45.04L57.5 39.22L56.81 40.89zM53.95 40.05 a3.21 3.21 0 1 0 6.42 0 a3.21 3.21 0 1 0 -6.42 0zM78.07 35.29L79.35 34.01L70.09 24.75L68.81 26.03zM66.24 25.39 a3.21 3.21 0 1 0 6.42 0 a3.21 3.21 0 1 0 -6.42 0zM89.09 27.5L90.77 26.8L84.64 12L82.96 12.7zM80.59 12.35 a3.21 3.21 0 1 0 6.42 0 a3.21 3.21 0 1 0 -6.42 0zM102.26 24.52L104.08 24.52L104.08 9.45L102.26 9.45zM99.96 9.45 a3.21 3.21 0 1 0 6.42 0 a3.21 3.21 0 1 0 -6.42 0zM115.57 26.8L117.25 27.5L122.96 13.69L121.29 13zM118.92 13.35 a3.21 3.21 0 1 0 6.42 0 a3.21 3.21 0 1 0 -6.42 0zM126.99 34.01L128.27 35.29L135.71 27.85L134.43 26.57zM131.86 27.21 a3.21 3.21 0 1 0 6.42 0 a3.21 3.21 0 1 0 -6.42 0zM134.79 45.04L135.48 46.71L149.93 40.73L149.24 39.05zM146.37 39.89 a3.21 3.21 0 1 0 6.42 0 a3.21 3.21 0 1 0 -6.42 0zM68.56 59.11 a34.61 34.61 0 1 0 69.22 0 a34.61 34.61 0 1 0 -69.22 0z" fill="#488fdb"></path><path d="M128.94 36.01 A33.608 33.608 0 0 1 110.37 92.97M110.37 92.97 A69.216 69.216 0 0 0 128.94 36.01" fill="#2672c3" fill-rule="nonzero"></path><path d="M70.53 49.07 a5.54 5.54 0 1 0 11.08 0 a5.54 5.54 0 1 0 -11.08 0zM73.95 75.59 a4.85 4.85 0 1 0 9.7 0 a4.85 4.85 0 1 0 -9.7 0zM90.68 62.09 a6.92 6.92 0 1 0 13.84 0 a6.92 6.92 0 1 0 -13.84 0zM95.74 27.34 a2.08 2.08 0 1 0 4.16 0 a2.08 2.08 0 1 0 -4.16 0zM113.63 64.91 a6.92 6.92 0 1 0 13.84 0 a6.92 6.92 0 1 0 -13.84 0zM86.47 88.21 a1.38 1.38 0 1 0 2.76 0 a1.38 1.38 0 1 0 -2.76 0zM83.78 38.27 a1.73 1.73 0 1 0 3.46 0 a1.73 1.73 0 1 0 -3.46 0zM109.68 77.89 a1.73 1.73 0 1 0 3.46 0 a1.73 1.73 0 1 0 -3.46 0zM101.75 90.17 a3.46 3.46 0 1 0 6.92 0 a3.46 3.46 0 1 0 -6.92 0zM125.31 49.47 a3.46 3.46 0 1 0 6.92 0 a3.46 3.46 0 1 0 -6.92 0z" fill="#2672c3" fill-rule="nonzero"></path><path d="M1192.34 416.46L1192.34 419.18L1205.46 419.18L1205.46 416.46zM1200.65 417.82 a4.81 4.81 0 1 0 9.62 0 a4.81 4.81 0 1 0 -9.62 0zM1188.91 436.42L1187.87 438.94L1196.93 442.69L1197.97 440.18zM1192.64 441.43 a4.81 4.81 0 1 0 9.62 0 a4.81 4.81 0 1 0 -9.62 0zM1178.1 453.55L1176.18 455.48L1190.02 469.32L1191.95 467.4zM1186.18 468.36 a4.81 4.81 0 1 0 9.62 0 a4.81 4.81 0 1 0 -9.62 0zM1161.56 465.24L1159.05 466.28L1163.16 476.2L1165.67 475.16zM1159.6 475.68 a4.81 4.81 0 1 0 9.62 0 a4.81 4.81 0 1 0 -9.62 0zM1141.8 469.72L1139.09 469.72L1139.09 488.71L1141.8 488.71zM1135.64 488.71 a4.81 4.81 0 1 0 9.62 0 a4.81 4.81 0 1 0 -9.62 0zM1121.84 466.28L1119.33 465.24L1114.36 477.26L1116.87 478.3zM1110.8 477.78 a4.81 4.81 0 1 0 9.62 0 a4.81 4.81 0 1 0 -9.62 0zM1104.71 455.48L1102.79 453.55L1092.1 464.25L1094.02 466.17zM1088.25 465.21 a4.81 4.81 0 1 0 9.62 0 a4.81 4.81 0 1 0 -9.62 0zM1093.02 438.94L1091.98 436.42L1074.67 443.6L1075.71 446.11zM1070.38 444.85 a4.81 4.81 0 1 0 9.62 0 a4.81 4.81 0 1 0 -9.62 0zM1088.55 419.18L1088.55 416.46L1072.7 416.46L1072.7 419.18zM1067.89 417.82 a4.81 4.81 0 1 0 9.62 0 a4.81 4.81 0 1 0 -9.62 0zM1091.98 399.22L1093.02 396.71L1081.58 391.97L1080.54 394.48zM1076.25 393.22 a4.81 4.81 0 1 0 9.62 0 a4.81 4.81 0 1 0 -9.62 0zM1102.79 382.09L1104.71 380.17L1091.28 366.73L1089.35 368.65zM1085.51 367.69 a4.81 4.81 0 1 0 9.62 0 a4.81 4.81 0 1 0 -9.62 0zM1119.33 370.4L1121.84 369.36L1112.83 347.6L1110.32 348.64zM1106.76 348.12 a4.81 4.81 0 1 0 9.62 0 a4.81 4.81 0 1 0 -9.62 0zM1139.09 365.93L1141.8 365.93L1141.8 344.69L1139.09 344.69zM1135.64 344.69 a4.81 4.81 0 1 0 9.62 0 a4.81 4.81 0 1 0 -9.62 0zM1159.05 369.36L1161.56 370.4L1165.21 361.57L1162.7 360.53zM1159.15 361.05 a4.81 4.81 0 1 0 9.62 0 a4.81 4.81 0 1 0 -9.62 0zM1176.18 380.17L1178.1 382.09L1184.97 375.22L1183.05 373.3zM1179.2 374.26 a4.81 4.81 0 1 0 9.62 0 a4.81 4.81 0 1 0 -9.62 0zM1187.87 396.71L1188.91 399.22L1207.62 391.47L1206.58 388.96zM1202.29 390.21 a4.81 4.81 0 1 0 9.62 0 a4.81 4.81 0 1 0 -9.62 0zM1088.54 417.82 a51.91 51.91 0 1 0 103.82 0 a51.91 51.91 0 1 0 -103.82 0z" fill="#488fdb"></path><path d="M1156.06 467.33 A50.912 50.912 0 0 1 1089.74 406.7M1089.74 406.7 A103.824 103.824 0 0 0 1156.06 467.33" fill="#2672c3" fill-rule="nonzero"></path><path d="M1131.97 381.23 a10.38 10.38 0 1 0 20.76 0 a10.38 10.38 0 1 0 -20.76 0zM1132.22 404.31 a3.11 3.11 0 1 0 6.22 0 a3.11 3.11 0 1 0 -6.22 0zM1180.67 417.24 a5.71 5.71 0 1 0 11.42 0 a5.71 5.71 0 1 0 -11.42 0zM1132.71 426.07 a8.82 8.82 0 1 0 17.64 0 a8.82 8.82 0 1 0 -17.64 0zM1160.46 393.42 a4.67 4.67 0 1 0 9.34 0 a4.67 4.67 0 1 0 -9.34 0zM1094.85 428.72 a10.38 10.38 0 1 0 20.76 0 a10.38 10.38 0 1 0 -20.76 0zM1112.97 381.9 a4.15 4.15 0 1 0 8.3 0 a4.15 4.15 0 1 0 -8.3 0zM1151.32 407.95 a2.6 2.6 0 1 0 5.2 0 a2.6 2.6 0 1 0 -5.2 0zM1113.29 405.17 a4.15 4.15 0 1 0 8.3 0 a4.15 4.15 0 1 0 -8.3 0zM1147.18 451.42 a10.38 10.38 0 1 0 20.76 0 a10.38 10.38 0 1 0 -20.76 0z" fill="#2672c3" fill-rule="nonzero"></path><path d="M630.99 335.32L630.99 337.13L635.97 337.13L635.97 335.32zM632.76 336.23 a3.21 3.21 0 1 0 6.42 0 a3.21 3.21 0 1 0 -6.42 0zM628.71 348.63L628.01 350.31L642.67 356.38L643.37 354.7zM639.81 355.54 a3.21 3.21 0 1 0 6.42 0 a3.21 3.21 0 1 0 -6.42 0zM621.5 360.05L620.22 361.33L631.97 373.08L633.25 371.8zM629.4 372.44 a3.21 3.21 0 1 0 6.42 0 a3.21 3.21 0 1 0 -6.42 0zM610.47 367.84L608.8 368.54L612.41 377.26L614.08 376.57zM610.04 376.91 a3.21 3.21 0 1 0 6.42 0 a3.21 3.21 0 1 0 -6.42 0zM597.3 370.82L595.49 370.82L595.49 381.05L597.3 381.05zM593.19 381.05 a3.21 3.21 0 1 0 6.42 0 a3.21 3.21 0 1 0 -6.42 0zM583.99 368.54L582.32 367.84L577.96 378.36L579.64 379.05zM575.59 378.71 a3.21 3.21 0 1 0 6.42 0 a3.21 3.21 0 1 0 -6.42 0zM572.57 361.33L571.29 360.05L564.18 367.16L565.46 368.45zM561.61 367.81 a3.21 3.21 0 1 0 6.42 0 a3.21 3.21 0 1 0 -6.42 0zM564.78 350.31L564.09 348.63L556.17 351.91L556.86 353.58zM553.31 352.75 a3.21 3.21 0 1 0 6.42 0 a3.21 3.21 0 1 0 -6.42 0zM561.8 337.13L561.8 335.32L555.49 335.32L555.49 337.13zM552.28 336.23 a3.21 3.21 0 1 0 6.42 0 a3.21 3.21 0 1 0 -6.42 0zM564.09 323.83L564.78 322.15L549.44 315.8L548.75 317.47zM545.89 316.64 a3.21 3.21 0 1 0 6.42 0 a3.21 3.21 0 1 0 -6.42 0zM571.29 312.41L572.57 311.13L569.45 308L568.17 309.28zM565.6 308.64 a3.21 3.21 0 1 0 6.42 0 a3.21 3.21 0 1 0 -6.42 0zM582.32 304.61L583.99 303.92L579.7 293.56L578.03 294.26zM575.66 293.91 a3.21 3.21 0 1 0 6.42 0 a3.21 3.21 0 1 0 -6.42 0zM595.49 301.63L597.3 301.63L597.3 294.66L595.49 294.66zM593.19 294.66 a3.21 3.21 0 1 0 6.42 0 a3.21 3.21 0 1 0 -6.42 0zM608.8 303.92L610.47 304.61L613.27 297.86L611.6 297.17zM609.22 297.51 a3.21 3.21 0 1 0 6.42 0 a3.21 3.21 0 1 0 -6.42 0zM620.22 311.13L621.5 312.41L625.41 308.5L624.13 307.21zM621.56 307.86 a3.21 3.21 0 1 0 6.42 0 a3.21 3.21 0 1 0 -6.42 0zM628.01 322.15L628.71 323.83L642.22 318.23L641.53 316.55zM638.67 317.39 a3.21 3.21 0 1 0 6.42 0 a3.21 3.21 0 1 0 -6.42 0zM561.79 336.23 a34.61 34.61 0 1 0 69.22 0 a34.61 34.61 0 1 0 -69.22 0z" fill="#488fdb"></path><path d="M591 370.41 A33.608 33.608 0 0 1 569.44 314.52M569.44 314.52 A69.216 69.216 0 0 0 591 370.41" fill="#2672c3" fill-rule="nonzero"></path><path d="M604.71 362.1 a5.19 5.19 0 1 0 10.38 0 a5.19 5.19 0 1 0 -10.38 0zM595.56 319.01 a6.92 6.92 0 1 0 13.84 0 a6.92 6.92 0 1 0 -13.84 0zM568.86 330.72 a6.92 6.92 0 1 0 13.84 0 a6.92 6.92 0 1 0 -13.84 0zM623.2 334.59 a3.81 3.81 0 1 0 7.62 0 a3.81 3.81 0 1 0 -7.62 0zM584.7 352 a6.92 6.92 0 1 0 13.84 0 a6.92 6.92 0 1 0 -13.84 0zM617.88 325.12 a1.38 1.38 0 1 0 2.76 0 a1.38 1.38 0 1 0 -2.76 0zM589.39 304.49 a2.42 2.42 0 1 0 4.84 0 a2.42 2.42 0 1 0 -4.84 0zM608.26 332.89 a1.73 1.73 0 1 0 3.46 0 a1.73 1.73 0 1 0 -3.46 0zM585.96 367.87 a1.73 1.73 0 1 0 3.46 0 a1.73 1.73 0 1 0 -3.46 0zM606.01 342.8 a1.38 1.38 0 1 0 2.76 0 a1.38 1.38 0 1 0 -2.76 0z" fill="#2672c3" fill-rule="nonzero"></path><path d="M740.2 131.11L740.2 133.38L760.13 133.38L760.13 131.11zM756.12 132.25 a4.01 4.01 0 1 0 8.02 0 a4.01 4.01 0 1 0 -8.02 0zM737.34 147.75L736.47 149.84L747.59 154.45L748.45 152.35zM744.01 153.4 a4.01 4.01 0 1 0 8.02 0 a4.01 4.01 0 1 0 -8.02 0zM728.33 162.03L726.73 163.63L731.3 168.2L732.91 166.6zM728.1 167.4 a4.01 4.01 0 1 0 8.02 0 a4.01 4.01 0 1 0 -8.02 0zM714.55 171.77L712.45 172.63L718.85 188.07L720.94 187.2zM715.89 187.64 a4.01 4.01 0 1 0 8.02 0 a4.01 4.01 0 1 0 -8.02 0zM698.08 175.49L695.82 175.49L695.82 190.29L698.08 190.29zM692.94 190.29 a4.01 4.01 0 1 0 8.02 0 a4.01 4.01 0 1 0 -8.02 0zM681.45 172.63L679.36 171.77L674.9 182.53L676.99 183.4zM671.93 182.96 a4.01 4.01 0 1 0 8.02 0 a4.01 4.01 0 1 0 -8.02 0zM667.17 163.63L665.57 162.03L650.55 177.04L652.15 178.65zM647.34 177.84 a4.01 4.01 0 1 0 8.02 0 a4.01 4.01 0 1 0 -8.02 0zM657.43 149.84L656.56 147.75L640.89 154.24L641.75 156.34zM637.31 155.29 a4.01 4.01 0 1 0 8.02 0 a4.01 4.01 0 1 0 -8.02 0zM653.71 133.38L653.71 131.11L638.21 131.11L638.21 133.38zM634.2 132.25 a4.01 4.01 0 1 0 8.02 0 a4.01 4.01 0 1 0 -8.02 0zM656.56 116.74L657.43 114.65L650.29 111.69L649.42 113.79zM645.85 112.74 a4.01 4.01 0 1 0 8.02 0 a4.01 4.01 0 1 0 -8.02 0zM665.57 102.47L667.17 100.87L653.48 87.18L651.88 88.78zM648.67 87.98 a4.01 4.01 0 1 0 8.02 0 a4.01 4.01 0 1 0 -8.02 0zM679.36 92.73L681.45 91.86L673.97 73.81L671.88 74.67zM668.91 74.24 a4.01 4.01 0 1 0 8.02 0 a4.01 4.01 0 1 0 -8.02 0zM695.82 89L698.08 89L698.08 68.66L695.82 68.66zM692.94 68.66 a4.01 4.01 0 1 0 8.02 0 a4.01 4.01 0 1 0 -8.02 0zM712.45 91.86L714.55 92.73L721.22 76.62L719.12 75.76zM716.16 76.19 a4.01 4.01 0 1 0 8.02 0 a4.01 4.01 0 1 0 -8.02 0zM726.73 100.87L728.33 102.47L738.07 92.72L736.47 91.12zM733.26 91.92 a4.01 4.01 0 1 0 8.02 0 a4.01 4.01 0 1 0 -8.02 0zM736.47 114.65L737.34 116.74L753.28 110.14L752.42 108.05zM748.84 109.09 a4.01 4.01 0 1 0 8.02 0 a4.01 4.01 0 1 0 -8.02 0zM653.69 132.25 a43.26 43.26 0 1 0 86.52 0 a43.26 43.26 0 1 0 -86.52 0z" fill="#488fdb"></path><path d="M740.17 130.47 A42.26 42.26 0 0 1 676.96 170.61M676.96 170.61 A86.52 86.52 0 0 0 740.17 130.47" fill="#2672c3" fill-rule="nonzero"></path><path d="M664.07 145.02 a8.65 8.65 0 1 0 17.3 0 a8.65 8.65 0 1 0 -17.3 0zM671.66 115.64 a8.65 8.65 0 1 0 17.3 0 a8.65 8.65 0 1 0 -17.3 0zM684.37 92.72 a2.16 2.16 0 1 0 4.32 0 a2.16 2.16 0 1 0 -4.32 0zM689.9 147.62 a4.33 4.33 0 1 0 8.66 0 a4.33 4.33 0 1 0 -8.66 0zM707.94 119.03 a8.65 8.65 0 1 0 17.3 0 a8.65 8.65 0 1 0 -17.3 0zM710.01 156.06 a8.65 8.65 0 1 0 17.3 0 a8.65 8.65 0 1 0 -17.3 0zM704.92 95.97 a4.76 4.76 0 1 0 9.52 0 a4.76 4.76 0 1 0 -9.52 0zM660.47 109.51 a1.73 1.73 0 1 0 3.46 0 a1.73 1.73 0 1 0 -3.46 0zM725.81 136.14 a4.33 4.33 0 1 0 8.66 0 a4.33 4.33 0 1 0 -8.66 0zM696.47 165.65 a3.46 3.46 0 1 0 6.92 0 a3.46 3.46 0 1 0 -6.92 0z" fill="#2672c3" fill-rule="nonzero"></path></g><defs><mask id="SvgjsMask1006"><rect width="1400" height="560" fill="#ffffff"></rect></mask><linearGradient x1="15%" y1="-37.5%" x2="85%" y2="137.5%" gradientUnits="userSpaceOnUse" id="SvgjsLinearGradient1007"><stop stop-color="#0e2a47" offset="0"></stop><stop stop-color="rgba(146, 0, 228, 1)" offset="1"></stop></linearGradient></defs></svg>